<svg xmlns="http://www.w3.org/2000/svg" viewBox="0 0 100 100">
  <defs>
    <linearGradient id="g" x1="0" y1="0" x2="0" y2="1">
      <stop offset="0" stop-color="#1b8a8a"/>
      <stop offset="1" stop-color="#136868"/>
    </linearGradient>
  </defs>
  <rect width="100" height="100" rx="22" fill="url(#g)"/>
  <circle cx="68" cy="32" r="15" fill="#ffd678"/>
  <path d="M0 62 Q25 52 50 62 T100 62 V100 H0 Z" fill="#ffffff" opacity="0.6"/>
  <path d="M0 74 Q25 66 50 74 T100 74 V100 H0 Z" fill="#ffffff" opacity="0.8"/>
  <path d="M0 87 Q25 80 50 87 T100 87 V100 H0 Z" fill="#ffffff"/>
  <line x1="25" y1="60" x2="28" y2="32" stroke="#ffffff" stroke-width="4" stroke-linecap="round"/>
  <g stroke="#ff7a59" stroke-width="3.5" stroke-linecap="round">
    <line x1="28" y1="32" x2="16" y2="20"/>
    <line x1="28" y1="32" x2="20" y2="38"/>
    <line x1="28" y1="32" x2="38" y2="18"/>
    <line x1="28" y1="32" x2="40" y2="34"/>
  </g>
</svg>
